<mxfile host="app.diagrams.net" modified="2022-03-15T10:24:02.767Z" agent="5.0 (Windows)" etag="fbT3pvL1Gk-5N18I0gWV" version="17.1.2" type="github">
  <diagram id="sBrC_O1w08wfmyPcie-q" name="Page-1">
    <mxGraphModel dx="806" dy="508" grid="1" gridSize="10" guides="1" tooltips="1" connect="1" arrows="1" fold="1" page="1" pageScale="1" pageWidth="850" pageHeight="1100" math="0" shadow="0">
      <root>
        <mxCell id="0" />
        <mxCell id="1" parent="0" />
        <mxCell id="xe1-zFBnf7JqBdZLS7pF-1" value="&lt;h1&gt;Algorithm of Buying Plane&#39;s Ticket&lt;br&gt;&lt;/h1&gt;&lt;div&gt;The plane&#39;s ticket is sold for three categories: for adults, kids, and babies under 1 year old. Also the company monetize the baggage if above 20 kilos per adult. &lt;br&gt;&lt;/div&gt;&lt;div&gt;&lt;br&gt;&lt;/div&gt;&lt;div&gt;By: Andika Fadila Pratama D4JTD 1A&lt;/div&gt;&lt;div&gt;Polinema-Computer Programming&lt;/div&gt;&lt;div&gt;2022/03/15&lt;br&gt;&lt;/div&gt;" style="text;html=1;strokeColor=none;fillColor=#A9C4EB;spacing=5;spacingTop=-20;whiteSpace=wrap;overflow=hidden;rounded=0;" vertex="1" parent="1">
          <mxGeometry x="40" y="40" width="420" height="140" as="geometry" />
        </mxCell>
        <mxCell id="xe1-zFBnf7JqBdZLS7pF-2" value="" style="strokeWidth=2;html=1;shape=mxgraph.flowchart.terminator;whiteSpace=wrap;fillColor=none;" vertex="1" parent="1">
          <mxGeometry x="190" y="200" width="100" height="50" as="geometry" />
        </mxCell>
        <mxCell id="xe1-zFBnf7JqBdZLS7pF-4" value="Start" style="text;html=1;strokeColor=none;fillColor=none;align=center;verticalAlign=middle;whiteSpace=wrap;rounded=0;" vertex="1" parent="1">
          <mxGeometry x="210" y="210" width="60" height="30" as="geometry" />
        </mxCell>
        <mxCell id="xe1-zFBnf7JqBdZLS7pF-6" value="" style="shape=parallelogram;perimeter=parallelogramPerimeter;whiteSpace=wrap;html=1;fixedSize=1;strokeWidth=2;fillColor=none;" vertex="1" parent="1">
          <mxGeometry x="170" y="350" width="140" height="60" as="geometry" />
        </mxCell>
        <mxCell id="xe1-zFBnf7JqBdZLS7pF-7" value="Input Adults,Kids,Babies" style="text;html=1;strokeColor=none;fillColor=none;align=center;verticalAlign=middle;whiteSpace=wrap;rounded=0;" vertex="1" parent="1">
          <mxGeometry x="210" y="365" width="60" height="30" as="geometry" />
        </mxCell>
        <mxCell id="xe1-zFBnf7JqBdZLS7pF-9" value="" style="rounded=1;whiteSpace=wrap;html=1;absoluteArcSize=1;arcSize=14;strokeWidth=2;fillColor=none;" vertex="1" parent="1">
          <mxGeometry x="170" y="270" width="140" height="60" as="geometry" />
        </mxCell>
        <mxCell id="xe1-zFBnf7JqBdZLS7pF-11" value="Adults,Kids,Babies = Integer" style="text;html=1;strokeColor=none;fillColor=none;align=center;verticalAlign=middle;whiteSpace=wrap;rounded=0;" vertex="1" parent="1">
          <mxGeometry x="175" y="285" width="130" height="30" as="geometry" />
        </mxCell>
        <mxCell id="xe1-zFBnf7JqBdZLS7pF-12" value="" style="rounded=1;whiteSpace=wrap;html=1;absoluteArcSize=1;arcSize=14;strokeWidth=2;fillColor=none;" vertex="1" parent="1">
          <mxGeometry x="130" y="430" width="220" height="60" as="geometry" />
        </mxCell>
        <mxCell id="xe1-zFBnf7JqBdZLS7pF-13" value="Price = (Adults*500,000) + (Kids*250,000) + (Babies*125,000)" style="text;html=1;strokeColor=none;fillColor=none;align=center;verticalAlign=middle;whiteSpace=wrap;rounded=0;" vertex="1" parent="1">
          <mxGeometry x="132.5" y="445" width="215" height="30" as="geometry" />
        </mxCell>
        <mxCell id="xe1-zFBnf7JqBdZLS7pF-15" value="" style="strokeWidth=2;html=1;shape=mxgraph.flowchart.decision;whiteSpace=wrap;fillColor=none;" vertex="1" parent="1">
          <mxGeometry x="150" y="580" width="180" height="100" as="geometry" />
        </mxCell>
        <mxCell id="xe1-zFBnf7JqBdZLS7pF-16" value="If Free_Baggage&amp;lt;=20" style="text;html=1;strokeColor=none;fillColor=none;align=center;verticalAlign=middle;whiteSpace=wrap;rounded=0;" vertex="1" parent="1">
          <mxGeometry x="182.5" y="615" width="115" height="30" as="geometry" />
        </mxCell>
        <mxCell id="xe1-zFBnf7JqBdZLS7pF-18" value="" style="rounded=1;whiteSpace=wrap;html=1;absoluteArcSize=1;arcSize=14;strokeWidth=2;fillColor=none;" vertex="1" parent="1">
          <mxGeometry x="176.25" y="512.5" width="127.5" height="45" as="geometry" />
        </mxCell>
        <mxCell id="xe1-zFBnf7JqBdZLS7pF-19" value="&lt;div&gt;Baggage = Int&lt;/div&gt;&lt;div&gt;Free_Baggage = Int&lt;br&gt;&lt;/div&gt;" style="text;html=1;strokeColor=none;fillColor=none;align=center;verticalAlign=middle;whiteSpace=wrap;rounded=0;" vertex="1" parent="1">
          <mxGeometry x="182.5" y="520" width="115" height="30" as="geometry" />
        </mxCell>
        <mxCell id="xe1-zFBnf7JqBdZLS7pF-21" value="" style="shape=parallelogram;perimeter=parallelogramPerimeter;whiteSpace=wrap;html=1;fixedSize=1;strokeWidth=2;fillColor=none;" vertex="1" parent="1">
          <mxGeometry x="180" y="710" width="120" height="60" as="geometry" />
        </mxCell>
        <mxCell id="xe1-zFBnf7JqBdZLS7pF-24" value="Print &quot;Free 20 kilo per adult&quot;" style="text;html=1;strokeColor=none;fillColor=none;align=center;verticalAlign=middle;whiteSpace=wrap;rounded=0;" vertex="1" parent="1">
          <mxGeometry x="200" y="725" width="80" height="30" as="geometry" />
        </mxCell>
        <mxCell id="xe1-zFBnf7JqBdZLS7pF-27" value="" style="endArrow=classic;html=1;rounded=0;exitX=0.5;exitY=1;exitDx=0;exitDy=0;exitPerimeter=0;entryX=0.5;entryY=0;entryDx=0;entryDy=0;" edge="1" parent="1" source="xe1-zFBnf7JqBdZLS7pF-15" target="xe1-zFBnf7JqBdZLS7pF-21">
          <mxGeometry width="50" height="50" relative="1" as="geometry">
            <mxPoint x="390" y="680" as="sourcePoint" />
            <mxPoint x="190" y="690" as="targetPoint" />
          </mxGeometry>
        </mxCell>
        <mxCell id="xe1-zFBnf7JqBdZLS7pF-28" value="True" style="text;html=1;strokeColor=none;fillColor=none;align=center;verticalAlign=middle;whiteSpace=wrap;rounded=0;" vertex="1" parent="1">
          <mxGeometry x="240" y="680" width="30" height="30" as="geometry" />
        </mxCell>
        <mxCell id="xe1-zFBnf7JqBdZLS7pF-29" value="" style="endArrow=classic;html=1;rounded=0;exitX=1;exitY=0.5;exitDx=0;exitDy=0;exitPerimeter=0;entryX=0.5;entryY=0;entryDx=0;entryDy=0;" edge="1" parent="1" source="xe1-zFBnf7JqBdZLS7pF-15" target="xe1-zFBnf7JqBdZLS7pF-31">
          <mxGeometry width="50" height="50" relative="1" as="geometry">
            <mxPoint x="390" y="680" as="sourcePoint" />
            <mxPoint x="410" y="660" as="targetPoint" />
          </mxGeometry>
        </mxCell>
        <mxCell id="xe1-zFBnf7JqBdZLS7pF-30" value="False" style="text;html=1;strokeColor=none;fillColor=none;align=center;verticalAlign=middle;whiteSpace=wrap;rounded=0;" vertex="1" parent="1">
          <mxGeometry x="330" y="610" width="50" height="30" as="geometry" />
        </mxCell>
        <mxCell id="xe1-zFBnf7JqBdZLS7pF-31" value="" style="shape=parallelogram;perimeter=parallelogramPerimeter;whiteSpace=wrap;html=1;fixedSize=1;strokeWidth=2;fillColor=none;" vertex="1" parent="1">
          <mxGeometry x="420" y="650" width="120" height="60" as="geometry" />
        </mxCell>
        <mxCell id="xe1-zFBnf7JqBdZLS7pF-32" value="Input Baggage" style="text;html=1;strokeColor=none;fillColor=none;align=center;verticalAlign=middle;whiteSpace=wrap;rounded=0;" vertex="1" parent="1">
          <mxGeometry x="450" y="665" width="60" height="30" as="geometry" />
        </mxCell>
        <mxCell id="xe1-zFBnf7JqBdZLS7pF-34" value="" style="rounded=1;whiteSpace=wrap;html=1;absoluteArcSize=1;arcSize=14;strokeWidth=2;fillColor=none;" vertex="1" parent="1">
          <mxGeometry x="345" y="730" width="270" height="45" as="geometry" />
        </mxCell>
        <mxCell id="xe1-zFBnf7JqBdZLS7pF-35" value="Charge = (Baggage*10,000) - Free_Baggage" style="text;html=1;strokeColor=none;fillColor=none;align=center;verticalAlign=middle;whiteSpace=wrap;rounded=0;" vertex="1" parent="1">
          <mxGeometry x="352.5" y="737.5" width="255" height="30" as="geometry" />
        </mxCell>
        <mxCell id="xe1-zFBnf7JqBdZLS7pF-36" value="" style="endArrow=classic;html=1;rounded=0;exitX=0.5;exitY=1;exitDx=0;exitDy=0;entryX=0.5;entryY=0;entryDx=0;entryDy=0;" edge="1" parent="1" source="xe1-zFBnf7JqBdZLS7pF-12" target="xe1-zFBnf7JqBdZLS7pF-18">
          <mxGeometry width="50" height="50" relative="1" as="geometry">
            <mxPoint x="330" y="630" as="sourcePoint" />
            <mxPoint x="380" y="580" as="targetPoint" />
          </mxGeometry>
        </mxCell>
        <mxCell id="xe1-zFBnf7JqBdZLS7pF-37" value="" style="endArrow=classic;html=1;rounded=0;exitX=0.5;exitY=1;exitDx=0;exitDy=0;entryX=0.5;entryY=0;entryDx=0;entryDy=0;entryPerimeter=0;" edge="1" parent="1" source="xe1-zFBnf7JqBdZLS7pF-18" target="xe1-zFBnf7JqBdZLS7pF-15">
          <mxGeometry width="50" height="50" relative="1" as="geometry">
            <mxPoint x="330" y="630" as="sourcePoint" />
            <mxPoint x="380" y="580" as="targetPoint" />
          </mxGeometry>
        </mxCell>
        <mxCell id="xe1-zFBnf7JqBdZLS7pF-39" value="" style="endArrow=classic;html=1;rounded=0;exitX=0.5;exitY=1;exitDx=0;exitDy=0;entryX=0.5;entryY=0;entryDx=0;entryDy=0;" edge="1" parent="1" source="xe1-zFBnf7JqBdZLS7pF-31" target="xe1-zFBnf7JqBdZLS7pF-34">
          <mxGeometry width="50" height="50" relative="1" as="geometry">
            <mxPoint x="330" y="740" as="sourcePoint" />
            <mxPoint x="380" y="690" as="targetPoint" />
          </mxGeometry>
        </mxCell>
        <mxCell id="xe1-zFBnf7JqBdZLS7pF-40" value="" style="shape=parallelogram;perimeter=parallelogramPerimeter;whiteSpace=wrap;html=1;fixedSize=1;strokeWidth=2;fillColor=none;" vertex="1" parent="1">
          <mxGeometry x="420" y="800" width="120" height="50" as="geometry" />
        </mxCell>
        <mxCell id="xe1-zFBnf7JqBdZLS7pF-41" value="Print Charge" style="text;html=1;strokeColor=none;fillColor=none;align=center;verticalAlign=middle;whiteSpace=wrap;rounded=0;" vertex="1" parent="1">
          <mxGeometry x="450" y="810" width="60" height="30" as="geometry" />
        </mxCell>
        <mxCell id="xe1-zFBnf7JqBdZLS7pF-42" value="" style="endArrow=classic;html=1;rounded=0;exitX=0.5;exitY=1;exitDx=0;exitDy=0;entryX=0.5;entryY=0;entryDx=0;entryDy=0;" edge="1" parent="1" source="xe1-zFBnf7JqBdZLS7pF-34" target="xe1-zFBnf7JqBdZLS7pF-40">
          <mxGeometry width="50" height="50" relative="1" as="geometry">
            <mxPoint x="330" y="800" as="sourcePoint" />
            <mxPoint x="380" y="750" as="targetPoint" />
          </mxGeometry>
        </mxCell>
        <mxCell id="xe1-zFBnf7JqBdZLS7pF-45" value="" style="endArrow=classic;html=1;rounded=0;exitX=0.5;exitY=1;exitDx=0;exitDy=0;entryX=0.5;entryY=0;entryDx=0;entryDy=0;" edge="1" parent="1" source="xe1-zFBnf7JqBdZLS7pF-9" target="xe1-zFBnf7JqBdZLS7pF-6">
          <mxGeometry width="50" height="50" relative="1" as="geometry">
            <mxPoint x="330" y="430" as="sourcePoint" />
            <mxPoint x="380" y="380" as="targetPoint" />
          </mxGeometry>
        </mxCell>
        <mxCell id="xe1-zFBnf7JqBdZLS7pF-46" value="" style="endArrow=classic;html=1;rounded=0;exitX=0.5;exitY=1;exitDx=0;exitDy=0;entryX=0.5;entryY=0;entryDx=0;entryDy=0;" edge="1" parent="1" source="xe1-zFBnf7JqBdZLS7pF-6" target="xe1-zFBnf7JqBdZLS7pF-12">
          <mxGeometry width="50" height="50" relative="1" as="geometry">
            <mxPoint x="330" y="430" as="sourcePoint" />
            <mxPoint x="380" y="380" as="targetPoint" />
          </mxGeometry>
        </mxCell>
        <mxCell id="xe1-zFBnf7JqBdZLS7pF-48" value="" style="endArrow=classic;html=1;rounded=0;exitX=0.5;exitY=1;exitDx=0;exitDy=0;exitPerimeter=0;entryX=0.5;entryY=0;entryDx=0;entryDy=0;" edge="1" parent="1" source="xe1-zFBnf7JqBdZLS7pF-2" target="xe1-zFBnf7JqBdZLS7pF-9">
          <mxGeometry width="50" height="50" relative="1" as="geometry">
            <mxPoint x="330" y="420" as="sourcePoint" />
            <mxPoint x="380" y="370" as="targetPoint" />
          </mxGeometry>
        </mxCell>
        <mxCell id="xe1-zFBnf7JqBdZLS7pF-49" value="" style="rounded=1;whiteSpace=wrap;html=1;strokeWidth=2;fillColor=none;" vertex="1" parent="1">
          <mxGeometry x="400" y="880" width="160" height="60" as="geometry" />
        </mxCell>
        <mxCell id="xe1-zFBnf7JqBdZLS7pF-50" value="Price2 = Price + Charge" style="text;html=1;strokeColor=none;fillColor=none;align=center;verticalAlign=middle;whiteSpace=wrap;rounded=0;" vertex="1" parent="1">
          <mxGeometry x="410" y="895" width="140" height="30" as="geometry" />
        </mxCell>
        <mxCell id="xe1-zFBnf7JqBdZLS7pF-51" value="" style="endArrow=classic;html=1;rounded=0;exitX=0.5;exitY=1;exitDx=0;exitDy=0;entryX=0.5;entryY=0;entryDx=0;entryDy=0;" edge="1" parent="1" source="xe1-zFBnf7JqBdZLS7pF-40" target="xe1-zFBnf7JqBdZLS7pF-49">
          <mxGeometry width="50" height="50" relative="1" as="geometry">
            <mxPoint x="330" y="880" as="sourcePoint" />
            <mxPoint x="380" y="830" as="targetPoint" />
          </mxGeometry>
        </mxCell>
        <mxCell id="xe1-zFBnf7JqBdZLS7pF-52" value="" style="rounded=1;whiteSpace=wrap;html=1;strokeWidth=2;fillColor=none;" vertex="1" parent="1">
          <mxGeometry x="170" y="795" width="140" height="60" as="geometry" />
        </mxCell>
        <mxCell id="xe1-zFBnf7JqBdZLS7pF-53" value="Price1 = Price + Free_Baggage" style="text;html=1;strokeColor=none;fillColor=none;align=center;verticalAlign=middle;whiteSpace=wrap;rounded=0;" vertex="1" parent="1">
          <mxGeometry x="185" y="810" width="110" height="30" as="geometry" />
        </mxCell>
        <mxCell id="xe1-zFBnf7JqBdZLS7pF-54" value="" style="endArrow=classic;html=1;rounded=0;exitX=0.5;exitY=1;exitDx=0;exitDy=0;entryX=0.5;entryY=0;entryDx=0;entryDy=0;" edge="1" parent="1" source="xe1-zFBnf7JqBdZLS7pF-21" target="xe1-zFBnf7JqBdZLS7pF-52">
          <mxGeometry width="50" height="50" relative="1" as="geometry">
            <mxPoint x="330" y="800" as="sourcePoint" />
            <mxPoint x="260" y="790" as="targetPoint" />
          </mxGeometry>
        </mxCell>
        <mxCell id="xe1-zFBnf7JqBdZLS7pF-55" value="" style="ellipse;whiteSpace=wrap;html=1;aspect=fixed;strokeWidth=2;fillColor=none;" vertex="1" parent="1">
          <mxGeometry x="345" y="960" width="20" height="20" as="geometry" />
        </mxCell>
        <mxCell id="xe1-zFBnf7JqBdZLS7pF-56" value="" style="endArrow=classic;html=1;rounded=0;exitX=0.5;exitY=1;exitDx=0;exitDy=0;entryX=0;entryY=0.5;entryDx=0;entryDy=0;" edge="1" parent="1" source="xe1-zFBnf7JqBdZLS7pF-52" target="xe1-zFBnf7JqBdZLS7pF-55">
          <mxGeometry width="50" height="50" relative="1" as="geometry">
            <mxPoint x="330" y="880" as="sourcePoint" />
            <mxPoint x="380" y="830" as="targetPoint" />
            <Array as="points">
              <mxPoint x="240" y="970" />
            </Array>
          </mxGeometry>
        </mxCell>
        <mxCell id="xe1-zFBnf7JqBdZLS7pF-57" value="" style="endArrow=classic;html=1;rounded=0;exitX=0.5;exitY=1;exitDx=0;exitDy=0;entryX=1;entryY=0.5;entryDx=0;entryDy=0;" edge="1" parent="1" source="xe1-zFBnf7JqBdZLS7pF-49" target="xe1-zFBnf7JqBdZLS7pF-55">
          <mxGeometry width="50" height="50" relative="1" as="geometry">
            <mxPoint x="330" y="880" as="sourcePoint" />
            <mxPoint x="380" y="830" as="targetPoint" />
            <Array as="points">
              <mxPoint x="480" y="970" />
            </Array>
          </mxGeometry>
        </mxCell>
        <mxCell id="xe1-zFBnf7JqBdZLS7pF-58" value="" style="strokeWidth=2;html=1;shape=mxgraph.flowchart.terminator;whiteSpace=wrap;fillColor=none;" vertex="1" parent="1">
          <mxGeometry x="305" y="1010" width="100" height="50" as="geometry" />
        </mxCell>
        <mxCell id="xe1-zFBnf7JqBdZLS7pF-59" value="" style="endArrow=classic;html=1;rounded=0;exitX=0.5;exitY=1;exitDx=0;exitDy=0;entryX=0.5;entryY=0;entryDx=0;entryDy=0;entryPerimeter=0;" edge="1" parent="1" source="xe1-zFBnf7JqBdZLS7pF-55" target="xe1-zFBnf7JqBdZLS7pF-58">
          <mxGeometry width="50" height="50" relative="1" as="geometry">
            <mxPoint x="420" y="890" as="sourcePoint" />
            <mxPoint x="470" y="840" as="targetPoint" />
          </mxGeometry>
        </mxCell>
        <mxCell id="xe1-zFBnf7JqBdZLS7pF-60" value="End" style="text;html=1;strokeColor=none;fillColor=none;align=center;verticalAlign=middle;whiteSpace=wrap;rounded=0;" vertex="1" parent="1">
          <mxGeometry x="325" y="1020" width="60" height="30" as="geometry" />
        </mxCell>
      </root>
    </mxGraphModel>
  </diagram>
</mxfile>
